<?xml version="1.0" encoding="UTF-8" standalone="no"?>
<!DOCTYPE svg PUBLIC "-//W3C//DTD SVG 1.1//EN"
 "http://www.w3.org/Graphics/SVG/1.1/DTD/svg11.dtd">
<!-- Generated by graphviz version 2.47.0 (20210316.0004)
 -->
<!-- Title: dependencies Pages: 1 -->
<svg width="1649pt" height="211pt"
 viewBox="0.00 0.00 1649.00 211.00" xmlns="http://www.w3.org/2000/svg" xmlns:xlink="http://www.w3.org/1999/xlink">
<g id="graph0" class="graph" transform="scale(1 1) rotate(0) translate(4 207)">
<title>dependencies</title>
<polygon fill="white" stroke="transparent" points="-4,4 -4,-207 1645,-207 1645,4 -4,4"/>
<text text-anchor="start" x="799.51" y="-42.4" font-family="sans-serif" font-weight="bold" font-size="14.00">Legend</text>
<polygon fill="#ffffb3" stroke="transparent" points="586.5,-10 586.5,-30 606.5,-30 606.5,-10 586.5,-10"/>
<text text-anchor="start" x="610.13" y="-15.4" font-family="sans-serif" font-size="14.00"> &#160;Declarations</text>
<polygon fill="#8dd3c7" stroke="transparent" points="699.5,-10 699.5,-30 719.5,-30 719.5,-10 699.5,-10"/>
<text text-anchor="start" x="723.23" y="-15.4" font-family="sans-serif" font-size="14.00"> &#160;Module</text>
<polygon fill="#80b1d3" stroke="transparent" points="785.5,-10 785.5,-30 805.5,-30 805.5,-10 785.5,-10"/>
<text text-anchor="start" x="809.28" y="-15.4" font-family="sans-serif" font-size="14.00"> &#160;Bootstrap</text>
<polygon fill="#fdb462" stroke="transparent" points="882.5,-10 882.5,-30 902.5,-30 902.5,-10 882.5,-10"/>
<text text-anchor="start" x="906.17" y="-15.4" font-family="sans-serif" font-size="14.00"> &#160;Providers</text>
<polygon fill="#fb8072" stroke="transparent" points="978.5,-10 978.5,-30 998.5,-30 998.5,-10 978.5,-10"/>
<text text-anchor="start" x="1002.23" y="-15.4" font-family="sans-serif" font-size="14.00"> &#160;Exports</text>
<g id="clust1" class="cluster">
<title>cluster_AppModule</title>
<polygon fill="none" stroke="black" stroke-dasharray="1,5" points="8,-70 8,-195 1633,-195 1633,-70 8,-70"/>
</g>
<g id="clust3" class="cluster">
<title>cluster_AppModule_imports</title>
<polygon fill="none" stroke="black" points="16,-78 16,-130 1625,-130 1625,-78 16,-78"/>
</g>
<!-- BlogModule -->
<g id="node1" class="node">
<title>BlogModule</title>
<polygon fill="#8dd3c7" stroke="black" points="1617.28,-122 1614.28,-126 1593.28,-126 1590.28,-122 1530.72,-122 1530.72,-86 1617.28,-86 1617.28,-122"/>
<text text-anchor="middle" x="1574" y="-99.8" font-family="Times,serif" font-size="14.00">BlogModule</text>
</g>
<!-- AppModule -->
<g id="node13" class="node">
<title>AppModule</title>
<polygon fill="#8dd3c7" stroke="black" points="903.66,-187 900.66,-191 879.66,-191 876.66,-187 820.34,-187 820.34,-151 903.66,-151 903.66,-187"/>
<text text-anchor="middle" x="862" y="-164.8" font-family="Times,serif" font-size="14.00">AppModule</text>
</g>
<!-- BlogModule&#45;&gt;AppModule -->
<g id="edge1" class="edge">
<title>BlogModule&#45;&gt;AppModule</title>
<path fill="none" stroke="black" d="M1574,-122.09C1574,-145.13 1574,-182 1574,-182 1574,-182 913.88,-182 913.88,-182"/>
<polygon fill="black" stroke="black" points="913.88,-178.5 903.88,-182 913.88,-185.5 913.88,-178.5"/>
</g>
<!-- CategoriasModule -->
<g id="node2" class="node">
<title>CategoriasModule</title>
<polygon fill="#8dd3c7" stroke="black" points="1512.92,-122 1509.92,-126 1488.92,-126 1485.92,-122 1393.08,-122 1393.08,-86 1512.92,-86 1512.92,-122"/>
<text text-anchor="middle" x="1453" y="-99.8" font-family="Times,serif" font-size="14.00">CategoriasModule</text>
</g>
<!-- CategoriasModule&#45;&gt;AppModule -->
<g id="edge2" class="edge">
<title>CategoriasModule&#45;&gt;AppModule</title>
<path fill="none" stroke="black" d="M1453,-122.28C1453,-143.32 1453,-175 1453,-175 1453,-175 914.03,-175 914.03,-175"/>
<polygon fill="black" stroke="black" points="914.03,-171.5 904.03,-175 914.03,-178.5 914.03,-171.5"/>
</g>
<!-- CiudadModule -->
<g id="node3" class="node">
<title>CiudadModule</title>
<polygon fill="#8dd3c7" stroke="black" points="1374.99,-122 1371.99,-126 1350.99,-126 1347.99,-122 1275.01,-122 1275.01,-86 1374.99,-86 1374.99,-122"/>
<text text-anchor="middle" x="1325" y="-99.8" font-family="Times,serif" font-size="14.00">CiudadModule</text>
</g>
<!-- CiudadModule&#45;&gt;AppModule -->
<g id="edge3" class="edge">
<title>CiudadModule&#45;&gt;AppModule</title>
<path fill="none" stroke="black" d="M1325,-122.11C1325,-141.34 1325,-169 1325,-169 1325,-169 913.9,-169 913.9,-169"/>
<polygon fill="black" stroke="black" points="913.9,-165.5 903.9,-169 913.9,-172.5 913.9,-165.5"/>
</g>
<!-- ClienteModule -->
<g id="node4" class="node">
<title>ClienteModule</title>
<polygon fill="#8dd3c7" stroke="black" points="1256.99,-122 1253.99,-126 1232.99,-126 1229.99,-122 1157.01,-122 1157.01,-86 1256.99,-86 1256.99,-122"/>
<text text-anchor="middle" x="1207" y="-99.8" font-family="Times,serif" font-size="14.00">ClienteModule</text>
</g>
<!-- ClienteModule&#45;&gt;AppModule -->
<g id="edge4" class="edge">
<title>ClienteModule&#45;&gt;AppModule</title>
<path fill="none" stroke="black" d="M1207,-122.02C1207,-139.37 1207,-163 1207,-163 1207,-163 913.96,-163 913.96,-163"/>
<polygon fill="black" stroke="black" points="913.96,-159.5 903.96,-163 913.96,-166.5 913.96,-159.5"/>
</g>
<!-- ContactoModule -->
<g id="node5" class="node">
<title>ContactoModule</title>
<polygon fill="#8dd3c7" stroke="black" points="1139.1,-122 1136.1,-126 1115.1,-126 1112.1,-122 1028.9,-122 1028.9,-86 1139.1,-86 1139.1,-122"/>
<text text-anchor="middle" x="1084" y="-99.8" font-family="Times,serif" font-size="14.00">ContactoModule</text>
</g>
<!-- ContactoModule&#45;&gt;AppModule -->
<g id="edge5" class="edge">
<title>ContactoModule&#45;&gt;AppModule</title>
<path fill="none" stroke="black" d="M1084,-122.24C1084,-137.57 1084,-157 1084,-157 1084,-157 913.76,-157 913.76,-157"/>
<polygon fill="black" stroke="black" points="913.76,-153.5 903.76,-157 913.76,-160.5 913.76,-153.5"/>
</g>
<!-- DepartamentoModule -->
<g id="node6" class="node">
<title>DepartamentoModule</title>
<polygon fill="#8dd3c7" stroke="black" points="1011.35,-122 1008.35,-126 987.35,-126 984.35,-122 872.65,-122 872.65,-86 1011.35,-86 1011.35,-122"/>
<text text-anchor="middle" x="942" y="-99.8" font-family="Times,serif" font-size="14.00">DepartamentoModule</text>
</g>
<!-- DepartamentoModule&#45;&gt;AppModule -->
<g id="edge6" class="edge">
<title>DepartamentoModule&#45;&gt;AppModule</title>
<path fill="none" stroke="black" d="M888.2,-122.11C888.2,-122.11 888.2,-140.99 888.2,-140.99"/>
<polygon fill="black" stroke="black" points="884.7,-140.99 888.2,-150.99 891.7,-140.99 884.7,-140.99"/>
</g>
<!-- DetalleCompraModule -->
<g id="node7" class="node">
<title>DetalleCompraModule</title>
<polygon fill="#8dd3c7" stroke="black" points="854.57,-122 851.57,-126 830.57,-126 827.57,-122 709.43,-122 709.43,-86 854.57,-86 854.57,-122"/>
<text text-anchor="middle" x="782" y="-99.8" font-family="Times,serif" font-size="14.00">DetalleCompraModule</text>
</g>
<!-- DetalleCompraModule&#45;&gt;AppModule -->
<g id="edge7" class="edge">
<title>DetalleCompraModule&#45;&gt;AppModule</title>
<path fill="none" stroke="black" d="M837.35,-122.11C837.35,-122.11 837.35,-140.99 837.35,-140.99"/>
<polygon fill="black" stroke="black" points="833.85,-140.99 837.35,-150.99 840.85,-140.99 833.85,-140.99"/>
</g>
<!-- DetalleFacturaModule -->
<g id="node8" class="node">
<title>DetalleFacturaModule</title>
<polygon fill="#8dd3c7" stroke="black" points="690.95,-122 687.95,-126 666.95,-126 663.95,-122 549.05,-122 549.05,-86 690.95,-86 690.95,-122"/>
<text text-anchor="middle" x="620" y="-99.8" font-family="Times,serif" font-size="14.00">DetalleFacturaModule</text>
</g>
<!-- DetalleFacturaModule&#45;&gt;AppModule -->
<g id="edge8" class="edge">
<title>DetalleFacturaModule&#45;&gt;AppModule</title>
<path fill="none" stroke="black" d="M620,-122.24C620,-137.57 620,-157 620,-157 620,-157 810.12,-157 810.12,-157"/>
<polygon fill="black" stroke="black" points="810.12,-160.5 820.12,-157 810.12,-153.5 810.12,-160.5"/>
</g>
<!-- FacturaModule -->
<g id="node9" class="node">
<title>FacturaModule</title>
<polygon fill="#8dd3c7" stroke="black" points="530.53,-122 527.53,-126 506.53,-126 503.53,-122 429.47,-122 429.47,-86 530.53,-86 530.53,-122"/>
<text text-anchor="middle" x="480" y="-99.8" font-family="Times,serif" font-size="14.00">FacturaModule</text>
</g>
<!-- FacturaModule&#45;&gt;AppModule -->
<g id="edge9" class="edge">
<title>FacturaModule&#45;&gt;AppModule</title>
<path fill="none" stroke="black" d="M480,-122.02C480,-139.37 480,-163 480,-163 480,-163 810.03,-163 810.03,-163"/>
<polygon fill="black" stroke="black" points="810.03,-166.5 820.03,-163 810.03,-159.5 810.03,-166.5"/>
</g>
<!-- ParametroModule -->
<g id="node10" class="node">
<title>ParametroModule</title>
<polygon fill="#8dd3c7" stroke="black" points="411.58,-122 408.58,-126 387.58,-126 384.58,-122 294.42,-122 294.42,-86 411.58,-86 411.58,-122"/>
<text text-anchor="middle" x="353" y="-99.8" font-family="Times,serif" font-size="14.00">ParametroModule</text>
</g>
<!-- ParametroModule&#45;&gt;AppModule -->
<g id="edge10" class="edge">
<title>ParametroModule&#45;&gt;AppModule</title>
<path fill="none" stroke="black" d="M353,-122.11C353,-141.34 353,-169 353,-169 353,-169 809.91,-169 809.91,-169"/>
<polygon fill="black" stroke="black" points="809.91,-172.5 819.91,-169 809.91,-165.5 809.91,-172.5"/>
</g>
<!-- ProductoModule -->
<g id="node11" class="node">
<title>ProductoModule</title>
<polygon fill="#8dd3c7" stroke="black" points="276.1,-122 273.1,-126 252.1,-126 249.1,-122 165.9,-122 165.9,-86 276.1,-86 276.1,-122"/>
<text text-anchor="middle" x="221" y="-99.8" font-family="Times,serif" font-size="14.00">ProductoModule</text>
</g>
<!-- ProductoModule&#45;&gt;AppModule -->
<g id="edge11" class="edge">
<title>ProductoModule&#45;&gt;AppModule</title>
<path fill="none" stroke="black" d="M221,-122.28C221,-143.32 221,-175 221,-175 221,-175 809.94,-175 809.94,-175"/>
<polygon fill="black" stroke="black" points="809.94,-178.5 819.94,-175 809.94,-171.5 809.94,-178.5"/>
</g>
<!-- TestimonioModule -->
<g id="node12" class="node">
<title>TestimonioModule</title>
<polygon fill="#8dd3c7" stroke="black" points="147.82,-122 144.82,-126 123.82,-126 120.82,-122 24.18,-122 24.18,-86 147.82,-86 147.82,-122"/>
<text text-anchor="middle" x="86" y="-99.8" font-family="Times,serif" font-size="14.00">TestimonioModule</text>
</g>
<!-- TestimonioModule&#45;&gt;AppModule -->
<g id="edge12" class="edge">
<title>TestimonioModule&#45;&gt;AppModule</title>
<path fill="none" stroke="black" d="M86,-122.09C86,-145.13 86,-182 86,-182 86,-182 810.28,-182 810.28,-182"/>
<polygon fill="black" stroke="black" points="810.28,-185.5 820.28,-182 810.28,-178.5 810.28,-185.5"/>
</g>
</g>
</svg>
